<svg xmlns:mydata="http://www.w3.org/2000/svg" mydata:contrastcolor="342800" mydata:template="Contrast" version="1.1" xmlns="http://www.w3.org/2000/svg" xmlns:xlink="http://www.w3.org/1999/xlink" viewBox="0 0 550 470" class="svg-signboard"><defs style="fill: #2f261c;"><linearGradient x1="132.86056" y1="235" x2="417.13944" y2="235" gradientUnits="userSpaceOnUse" id="color-145544" style="fill: #2f261c;"><stop offset="0" stop-color="#ac8400" style="fill: #2f261c;"/><stop offset="1" stop-color="#fdee79" style="fill: #2f261c;"/></linearGradient></defs><g fill="currentColor" fill-rule="none" stroke="none" stroke-width="1" stroke-linecap="butt" stroke-linejoin="miter" stroke-miterlimit="10" stroke-dasharray="" stroke-dashoffset="0" font-family="none" font-weight="none" font-size="none" text-anchor="none" style="mix-blend-mode: normal; fill: #2f261c;"><g data-paper-data="{&quot;isGlobalGroup&quot;:true,&quot;bounds&quot;:{&quot;x&quot;:132.86056024791824,&quot;y&quot;:115,&quot;width&quot;:284.27887950416346,&quot;height&quot;:240}}" style="fill: #2f261c;"><g data-paper-data="{&quot;isSecondaryText&quot;:true}" fill-rule="nonzero" style="fill: #2f261c;"><path d="M260.34046,345.50489c-0.11144,0.46807 -0.23403,0.964 -0.36777,1.48779c-0.13373,0.52379 -0.27304,1.01972 -0.41792,1.48779c-0.14488,0.46807 -0.27304,0.86927 -0.38449,1.20361c-0.11144,0.33433 -0.17831,0.55722 -0.2006,0.66867c-0.26747,0.91385 -0.51265,1.6661 -0.73554,2.25676c-0.22289,0.59066 -0.45135,1.05873 -0.68539,1.40421c-0.23403,0.34548 -0.49036,0.59066 -0.76897,0.73554c-0.27861,0.14488 -0.61852,0.22846 -1.01972,0.25075c-0.49036,0 -0.8637,-0.19503 -1.12002,-0.58509c-0.25632,-0.39006 -0.29533,-0.80798 -0.11702,-1.25376c0.06687,-0.2006 0.20617,-0.60738 0.41792,-1.22032c0.21175,-0.61295 0.43464,-1.29833 0.66867,-2.05616c0.23403,-0.75783 0.46807,-1.49894 0.7021,-2.22333c0.23403,-0.72439 0.41792,-1.28719 0.55165,-1.68839c-0.22289,0 -0.41792,0.03343 -0.58509,0.1003c-0.16717,0.06687 -0.32876,0.1003 -0.48479,0.1003c-0.24518,0.02229 -0.50707,-0.02786 -0.78569,-0.15045c-0.27861,-0.12259 -0.49036,-0.29533 -0.63524,-0.51822c-0.14488,-0.22289 -0.19503,-0.46807 -0.15045,-0.73554c0.04458,-0.26747 0.26747,-0.53494 0.66867,-0.8024c0.2006,-0.11144 0.41792,-0.22289 0.65195,-0.33433c0.23403,-0.11144 0.49593,-0.21175 0.78569,-0.3009c0.06687,-0.02229 0.20617,-0.06687 0.41792,-0.13373c0.21175,-0.06687 0.42349,-0.14488 0.63524,-0.23403c0.21175,-0.08916 0.39006,-0.16717 0.53494,-0.23403c0.14488,-0.06687 0.18388,-0.1003 0.11702,-0.1003c0,0 0.05015,-0.17831 0.15045,-0.53494c0.1003,-0.35662 0.22846,-0.76897 0.38449,-1.23704c0.15602,-0.46807 0.31205,-0.94728 0.46807,-1.43764c0.15602,-0.49036 0.27861,-0.86927 0.36777,-1.13674c0.11144,-0.37891 0.23403,-0.74111 0.36777,-1.08659c0.13373,-0.34548 0.25632,-0.70768 0.36777,-1.08659c0.26747,-0.78011 0.52936,-1.57695 0.78569,-2.3905c0.25632,-0.81355 0.50707,-1.61038 0.75225,-2.3905c-0.55722,0.06687 -1.03644,0.14488 -1.43764,0.23403c-0.4012,0.08916 -0.79126,0.18388 -1.17017,0.28418c-0.37891,0.1003 -0.77454,0.21732 -1.18689,0.35105c-0.41235,0.13373 -0.90828,0.27861 -1.48779,0.43464c-0.4012,0.04458 -0.69096,0.06687 -0.86927,0.06687c-0.17831,0 -0.37891,-0.05572 -0.6018,-0.16717c-0.02229,0 -0.06687,-0.03901 -0.13373,-0.11702c-0.06687,-0.07801 -0.13931,-0.1616 -0.21732,-0.25075c-0.07801,-0.08916 -0.15045,-0.17274 -0.21732,-0.25075c-0.06687,-0.07801 -0.1003,-0.12816 -0.1003,-0.15045c-0.2006,-0.35662 -0.22289,-0.67981 -0.06687,-0.96957c0.15602,-0.28976 0.41235,-0.55722 0.76897,-0.8024c0.35662,-0.24518 0.78011,-0.46807 1.27047,-0.66867c0.49036,-0.2006 0.97514,-0.36777 1.45436,-0.5015c0.47921,-0.13373 0.91942,-0.24518 1.32062,-0.33433c0.4012,-0.08916 0.67981,-0.15602 0.83584,-0.2006c0.71325,-0.15602 1.54351,-0.31205 2.4908,-0.46807c0.94728,-0.15602 1.93914,-0.26747 2.97558,-0.33433c1.03644,-0.06687 2.08959,-0.07801 3.15947,-0.03343c1.06987,0.04458 2.08959,0.16717 3.05916,0.36777c0.96957,0.2006 1.8667,0.49593 2.6914,0.88599c0.82469,0.39006 1.50451,0.89713 2.03944,1.52122c0.22289,0.22289 0.41792,0.48479 0.58509,0.78569c0.16717,0.3009 0.31762,0.61852 0.45135,0.95285c0.42349,1.11445 0.54051,2.14532 0.35105,3.0926c-0.18946,0.94728 -0.55722,1.81655 -1.10331,2.60781c-0.54608,0.79126 -1.22032,1.48779 -2.02273,2.08959c-0.8024,0.6018 -1.59366,1.11445 -2.37378,1.53794c-0.89156,0.46807 -1.84441,0.87484 -2.85856,1.22032c-1.01415,0.34548 -2.03387,0.66867 -3.05916,0.96957c-1.02529,0.3009 -2.03944,0.61295 -3.04245,0.93614c-1.003,0.32319 -1.95029,0.68539 -2.84185,1.08659zM273.41295,336.17694c0.46807,-0.91385 0.65195,-1.73854 0.55165,-2.47408c-0.1003,-0.73554 -0.39006,-1.35406 -0.86927,-1.85556c-0.47921,-0.5015 -1.12002,-0.8637 -1.92243,-1.08659c-0.8024,-0.22289 -1.68282,-0.28976 -2.64125,-0.2006c-0.51265,0.06687 -1.05873,0.10587 -1.63824,0.11702c-0.57951,0.01114 -1.12559,0.08358 -1.63824,0.21732c-0.4012,1.38192 -0.83584,2.75269 -1.30391,4.11232c-0.46807,1.35963 -0.92499,2.7304 -1.37077,4.11232c-0.13373,0.42349 -0.27861,0.84141 -0.43464,1.25376c-0.15602,0.41235 -0.31205,0.83027 -0.46807,1.25376c-0.02229,0 -0.03343,0.01114 -0.03343,0.03343c0.51265,-0.17831 1.10888,-0.3622 1.78869,-0.55165c0.67981,-0.18946 1.39863,-0.39563 2.15646,-0.61852c0.75783,-0.22289 1.53237,-0.46807 2.32363,-0.73554c0.79126,-0.26747 1.53794,-0.57394 2.24004,-0.91942c0.7021,-0.34548 1.33734,-0.73554 1.90571,-1.17017c0.56837,-0.43464 1.01972,-0.93057 1.35406,-1.48779z" data-paper-data="{&quot;glyphName&quot;:&quot;P&quot;,&quot;glyphIndex&quot;:0,&quot;firstGlyphOfWord&quot;:true,&quot;word&quot;:1}" style="fill: #2f261c;"/><path d="M281.20296,338.61759c0.4012,-0.26747 0.86927,-0.48479 1.40421,-0.65195c0.53494,-0.16717 1.03087,-0.21732 1.48779,-0.15045c0.45692,0.06687 0.83027,0.26747 1.12002,0.6018c0.28976,0.33433 0.4012,0.86927 0.33433,1.60481c0,0.28976 -0.05015,0.64081 -0.15045,1.05316c-0.1003,0.41235 -0.22846,0.83027 -0.38449,1.25376c-0.15602,0.42349 -0.32876,0.82469 -0.51822,1.20361c-0.18946,0.37891 -0.37334,0.67981 -0.55165,0.9027c-0.24518,0.31205 -0.59066,0.49593 -1.03644,0.55165c-0.44578,0.05572 -0.83584,-0.10587 -1.17017,-0.48479c-0.15602,-0.2006 -0.22846,-0.41235 -0.21732,-0.63524c0.01114,-0.22289 0.06129,-0.45692 0.15045,-0.7021c0.08916,-0.24518 0.17274,-0.49593 0.25075,-0.75225c0.07801,-0.25632 0.10587,-0.50707 0.08358,-0.75225c-0.69096,0.13373 -1.29276,0.45692 -1.80541,0.96957c-0.51265,0.51265 -0.96957,1.10331 -1.37077,1.77198c-0.4012,0.66867 -0.75783,1.35406 -1.06987,2.05616c-0.31205,0.7021 -0.6018,1.30948 -0.86927,1.82213c-0.11144,0.2006 -0.2006,0.42349 -0.26747,0.66867c-0.06687,0.24518 -0.14488,0.47921 -0.23403,0.7021c-0.08916,0.22289 -0.18946,0.42906 -0.3009,0.61852c-0.11144,0.18946 -0.25632,0.31762 -0.43464,0.38449c-0.37891,0.2006 -0.78569,0.25075 -1.22032,0.15045c-0.43464,-0.1003 -0.74111,-0.32876 -0.91942,-0.68539c-0.06687,-0.2006 -0.07244,-0.4625 -0.01672,-0.78569c0.05572,-0.32319 0.13931,-0.6631 0.25075,-1.01972c0.11144,-0.35662 0.23403,-0.71882 0.36777,-1.08659c0.13373,-0.36777 0.24518,-0.69653 0.33433,-0.98629c0.26747,-0.89156 0.60738,-1.82213 1.01972,-2.7917c0.41235,-0.96957 0.75225,-1.90014 1.01972,-2.7917c-0.33433,0.13373 -0.64638,0.22289 -0.93614,0.26747c-0.28976,0.04458 -0.53494,0.02229 -0.73554,-0.06687c-0.2006,-0.08916 -0.33991,-0.2619 -0.41792,-0.51822c-0.07801,-0.25632 -0.06129,-0.61852 0.05015,-1.08659c0.13373,-0.2006 0.25632,-0.38449 0.36777,-0.55165c0.11144,-0.16717 0.27861,-0.33991 0.5015,-0.51822c0.22289,-0.17831 0.52936,-0.35105 0.91942,-0.51822c0.39006,-0.16717 0.90828,-0.35105 1.55466,-0.55165c0.42349,-0.13373 0.75225,-0.15045 0.98629,-0.05015c0.23403,0.1003 0.40677,0.26747 0.51822,0.5015c0.11144,0.23403 0.1616,0.52379 0.15045,0.86927c-0.01114,0.34548 -0.06129,0.68539 -0.15045,1.01972c-0.02229,0.02229 -0.04458,0.07244 -0.06687,0.15045c-0.02229,0.07801 -0.04458,0.1616 -0.06687,0.25075c-0.02229,0.08916 -0.03901,0.16717 -0.05015,0.23403c-0.01114,0.06687 -0.01672,0.1003 -0.01672,0.1003c0.33433,-0.35662 0.65753,-0.63524 0.96957,-0.83584c0.31205,-0.2006 0.69096,-0.44578 1.13674,-0.73554z" data-paper-data="{&quot;glyphName&quot;:&quot;r&quot;,&quot;glyphIndex&quot;:1,&quot;word&quot;:1}" style="fill: #2f261c;"/><path d="M286.55232,350.65365c-0.37891,-0.11144 -0.75225,-0.32319 -1.12002,-0.63524c-0.36777,-0.31205 -0.60738,-0.65753 -0.71882,-1.03644c-0.22289,-0.69096 -0.33433,-1.47107 -0.33433,-2.34034c0,-0.6018 0.05572,-1.18132 0.16717,-1.73854c0.11144,-0.55722 0.32319,-1.21475 0.63524,-1.97258c0.35662,-0.75783 0.77454,-1.47665 1.25376,-2.15646c0.47921,-0.67981 1.02529,-1.27047 1.63824,-1.77198c0.61295,-0.5015 1.28162,-0.9027 2.00601,-1.20361c0.72439,-0.3009 1.52122,-0.44021 2.3905,-0.41792c0.35662,0.02229 0.72439,0.11144 1.10331,0.26747c0.37891,0.15602 0.72439,0.36777 1.03644,0.63524c0.31205,0.26747 0.58509,0.5628 0.81912,0.88599c0.23403,0.32319 0.37334,0.6631 0.41792,1.01972c0.02229,0.2006 0.03901,0.39563 0.05015,0.58509c0.01114,0.18946 0.01672,0.38449 0.01672,0.58509c0,1.24818 -0.21732,2.44065 -0.65195,3.57738c-0.43464,1.13674 -1.01972,2.14532 -1.75526,3.02573c-0.73554,0.88042 -1.57695,1.58252 -2.52423,2.10631c-0.94728,0.52379 -1.93357,0.78569 -2.95886,0.78569c-0.49036,0 -0.98072,-0.06687 -1.47107,-0.2006zM289.39417,341.8272c-0.26747,0.44578 -0.49593,0.81355 -0.68539,1.10331c-0.18946,0.28976 -0.35105,0.5628 -0.48479,0.81912c-0.13373,0.25632 -0.23961,0.52936 -0.31762,0.81912c-0.07801,0.28976 -0.13931,0.63524 -0.18388,1.03644c-0.06687,0.66867 -0.01672,1.1646 0.15045,1.48779c0.16717,0.32319 0.40677,0.48479 0.71882,0.48479c0.37891,0 0.8024,-0.16717 1.27047,-0.5015c0.46807,-0.33433 0.84698,-0.7021 1.13674,-1.10331l0.03343,-0.03343c0.02229,-0.02229 0.05572,-0.07801 0.1003,-0.16717c0.06687,-0.13373 0.19503,-0.34548 0.38449,-0.63524c0.18946,-0.28976 0.37891,-0.62966 0.56837,-1.01972c0.18946,-0.39006 0.35662,-0.79683 0.5015,-1.22032c0.14488,-0.42349 0.21732,-0.82469 0.21732,-1.20361c0,-0.33433 -0.08358,-0.62966 -0.25075,-0.88599c-0.16717,-0.25632 -0.45135,-0.41792 -0.85255,-0.48479c-0.17831,-0.04458 -0.38449,-0.01114 -0.61852,0.1003c-0.23403,0.11144 -0.4625,0.25075 -0.68539,0.41792c-0.22289,0.16717 -0.42349,0.33991 -0.6018,0.51822c-0.17831,0.17831 -0.31205,0.31205 -0.4012,0.4012z" data-paper-data="{&quot;glyphName&quot;:&quot;o&quot;,&quot;glyphIndex&quot;:2,&quot;lastGlyphOfWord&quot;:true,&quot;word&quot;:1}" style="fill: #2f261c;"/></g><g data-paper-data="{&quot;isPrimaryText&quot;:true}" fill-rule="nonzero" style="fill: #2f261c;"><path d="M175.28941,317.92323l-7.62262,-14.79685h-20.73801l-7.62262,14.79685h-6.4456l21.13035,-40.91553l0.39234,-0.72863h0.89678h2.01775h2.01775h0.89678l0.39234,0.72863l21.13035,40.91553h-6.4456zM164.69621,297.35337l-7.39843,-14.29241l-7.39843,14.29241z" data-paper-data="{&quot;glyphName&quot;:&quot;A&quot;,&quot;glyphIndex&quot;:0,&quot;firstGlyphOfWord&quot;:true,&quot;word&quot;:1}" style="fill: #2f261c;"/><path d="M183.97695,317.92323v-41.64417h5.88511v35.75905h24.10093v5.88511z" data-paper-data="{&quot;glyphName&quot;:&quot;L&quot;,&quot;glyphIndex&quot;:1,&quot;word&quot;:1}" style="fill: #2f261c;"/><path d="M258.85798,317.92323l-7.62262,-14.79685h-20.73801l-7.62262,14.79685h-6.4456l21.13035,-40.91553l0.39234,-0.72863h0.89678h2.01775h2.01775h0.89678l0.39234,0.72863l21.13035,40.91553h-6.4456zM248.26478,297.35337l-7.39843,-14.29241l-7.39843,14.29241z" data-paper-data="{&quot;glyphName&quot;:&quot;A&quot;,&quot;glyphIndex&quot;:2,&quot;word&quot;:1}" style="fill: #2f261c;"/><path d="M310.03042,317.92323v-28.52878l-15.30129,28.52878h-5.88511l-15.35734,-28.75297v28.75297h-5.77301v-41.64417h5.43672l0.39234,0.72863l18.21582,34.30179l18.27187,-34.30179l0.33629,-0.72863h5.43672v41.64417z" data-paper-data="{&quot;glyphName&quot;:&quot;M&quot;,&quot;glyphIndex&quot;:3,&quot;word&quot;:1}" style="fill: #2f261c;"/><path d="M353.01976,299.65136c1.12097,1.86829 1.68146,3.88604 1.68146,6.05326c0,1.60673 -0.29893,3.12004 -0.89678,4.53994c-0.59785,1.4199 -1.41056,2.67165 -2.43812,3.75526c-1.02756,1.08361 -2.25129,1.97105 -3.67119,2.66231c-1.4199,0.69127 -2.93321,1.11163 -4.53994,1.2611h-24.94166v-41.64417h24.66142c2.9519,0.41102 5.4554,1.58805 7.51052,3.53107c1.08361,1.08361 1.92434,2.30734 2.52219,3.67119c0.59785,1.36385 0.89678,2.77441 0.89678,4.23167c0,1.83092 -0.46707,3.58712 -1.40122,5.26858c-0.70995,1.19571 -1.56936,2.24195 -2.57824,3.13873c1.34517,0.97151 2.41009,2.14853 3.19477,3.53107zM324.04259,293.48601h17.93558h0.28024h0.28024h0.33629h0.33629c1.4199,-0.41102 2.55956,-1.149 3.41897,-2.21392c0.85941,-1.06492 1.28912,-2.25129 1.28912,-3.55909c0,-1.4199 -0.53246,-2.66231 -1.59739,-3.72724c-1.06492,-1.06492 -2.4568,-1.72817 -4.17563,-1.98973h-18.10372zM341.97817,312.15022c0.93414,0 1.82158,-0.16815 2.66231,-0.50444c0.84073,-0.33629 1.56936,-0.79402 2.1859,-1.37319c0.61654,-0.57917 1.10229,-1.2611 1.45727,-2.04578c0.35497,-0.78468 0.53246,-1.62541 0.53246,-2.52219c0,-1.532 -0.51378,-2.90519 -1.54134,-4.11958c-1.02756,-1.21439 -2.32602,-1.97105 -3.89538,-2.26997h-19.33679v12.8912h16.98275z" data-paper-data="{&quot;glyphName&quot;:&quot;B&quot;,&quot;glyphIndex&quot;:4,&quot;word&quot;:1}" style="fill: #2f261c;"/><path d="M357.05526,317.92323v-5.82906h5.99721v-29.98604h-5.99721v-5.82906h17.48719v5.82906h-5.99721v29.98604h5.99721v5.82906z" data-paper-data="{&quot;glyphName&quot;:&quot;I&quot;,&quot;glyphIndex&quot;:5,&quot;word&quot;:1}" style="fill: #2f261c;"/><path d="M396.68167,317.86718c-2.80243,0 -5.51145,-0.5418 -8.12706,-1.62541c-1.23307,-0.52312 -2.40075,-1.149 -3.50304,-1.87763c-1.10229,-0.72863 -2.13919,-1.5787 -3.1107,-2.55021c-0.97151,-0.97151 -1.82158,-2.00841 -2.55021,-3.1107c-0.72863,-1.10229 -1.35451,-2.26997 -1.87763,-3.50304c-1.12097,-2.57824 -1.68146,-5.28726 -1.68146,-8.12706c0,-2.8398 0.56049,-5.53014 1.68146,-8.07101c0.52312,-1.27044 1.149,-2.44746 1.87763,-3.53107c0.72863,-1.08361 1.5787,-2.11117 2.55021,-3.08268c1.90565,-1.90565 4.11024,-3.40029 6.61374,-4.48389c2.6156,-1.08361 5.32462,-1.62541 8.12706,-1.62541c3.66185,0 7.0995,0.91546 10.31296,2.74639c3.13873,1.75619 5.62355,4.18497 7.45447,7.28633l0.89678,1.45727h-6.66979l-0.28024,-0.39234c-1.45727,-1.75619 -3.20412,-3.1107 -5.24055,-4.06353c-2.03644,-0.95283 -4.19431,-1.42924 -6.47362,-1.42924c-2.09248,0 -4.06353,0.40168 -5.91314,1.20505c-1.84961,0.80336 -3.46568,1.88697 -4.84821,3.25082c-1.38253,1.36385 -2.47548,2.97058 -3.27885,4.82019c-0.80336,1.84961 -1.20505,3.82065 -1.20505,5.91314c0,2.09248 0.40168,4.06353 1.20505,5.91314c0.80336,1.84961 1.89631,3.46568 3.27885,4.84821c1.38253,1.38253 2.9986,2.46614 4.84821,3.25082c1.84961,0.78468 3.82065,1.17702 5.91314,1.17702c1.68146,0 3.28819,-0.26156 4.82019,-0.78468c1.532,-0.52312 2.93321,-1.25175 4.20365,-2.1859c1.27044,-0.93414 2.38207,-2.05512 3.3349,-3.36292c0.95283,-1.3078 1.67212,-2.76507 2.15787,-4.3718l0.22419,-0.67258h5.71696l-0.28024,1.17702c-0.59785,2.31668 -1.51331,4.42785 -2.74639,6.3335c-1.27044,1.94302 -2.78375,3.6058 -4.53994,4.98833c-1.79356,1.4199 -3.77394,2.52219 -5.94116,3.30687c-2.24195,0.78468 -4.55863,1.17702 -6.95004,1.17702z" data-paper-data="{&quot;glyphName&quot;:&quot;C&quot;,&quot;glyphIndex&quot;:6,&quot;lastGlyphOfWord&quot;:true,&quot;word&quot;:1}" style="fill: #2f261c;"/></g><g data-paper-data="{&quot;isIcon&quot;:&quot;true&quot;,&quot;iconType&quot;:&quot;icon&quot;,&quot;rawIconId&quot;:&quot;485745&quot;,&quot;selectedEffects&quot;:{&quot;container&quot;:&quot;&quot;,&quot;transformation&quot;:&quot;&quot;,&quot;pattern&quot;:&quot;&quot;},&quot;isDetailed&quot;:true,&quot;iconStyle&quot;:&quot;standalone&quot;,&quot;bounds&quot;:{&quot;x&quot;:208.70903443671614,&quot;y&quot;:115,&quot;width&quot;:132.58193112656772,&quot;height&quot;:134.81081917632287},&quot;fillRule&quot;:&quot;evenodd&quot;,&quot;suitableAsStandaloneIcon&quot;:true}" fill-rule="evenodd" style="fill: #2f261c;"><path d="M236.56659,154.72029v-18.43374v-0.04365c-0.0071,-4.3669 1.75143,-8.26139 5.27559,-11.68345c6.56315,-6.37297 18.19471,-9.55945 34.89468,-9.55945c16.59677,0 28.22573,2.51773 34.88688,7.55319c3.59786,2.71971 5.36699,5.54062 5.30739,8.46272v12.05168h-2.9998v-12.08543l0.00045,-0.01725c0.0437,-1.90467 -1.32861,-3.91094 -4.11692,-6.01879c-6.12599,-4.63089 -17.15198,-6.94633 -33.078,-6.94633c-15.88882,0 -26.82378,2.9039 -32.80487,8.7117c-2.9161,2.83161 -4.3713,6.00714 -4.36561,9.5266v0.04844v18.43374zM318.03504,143.26857v1.4594h-5.20765v-1.4594zM335.89133,143.59705c0,2.36489 -1.75518,4.81332 -4.04867,5.25894c-0.0002,0.74105 -0.00625,1.32791 -0.01815,1.76058h2.59692v2.04736h-16.86485v0.41997h15.70543v50.75505h0.56396v1.4606l2.30235,-0.00645v-1.45415h0.42597v-2.81531h3.38377v0.58346h-2.74482v2.23185h0.68396v1.4492l3.41062,-0.0096l0.00315,1.10842l-0.08174,0.0003h0.08025v1.16242h-1.19542v-1.15927l-2.21685,0.00615v2.56002h-1.74888v-2.55508l-2.30084,0.00645l-0.0015,-0.53171v1.97192h-0.56396v2.9608h-37.25447v-51.31901h-1.31391v-2.1915l-1.55239,-0.00435v2.55433h-1.74888v-2.55928l-2.85971,-0.00795l0.09614,0.763l-45.72364,5.75841v0.99998h1.07543v0.52046c7.19096,1.15372 13.86955,3.83074 13.86955,3.83074h-39.56731c0,0 6.67949,-2.67732 13.87106,-3.83104v-0.52017h3.83824v-5.25864h4.15022v5.25864h1.22691v-2.65032h1.53589v0.13859l45.07463,-5.67666l0.0012,-0.44307l3.41137,0.0096v-1.44995h0.68245v-2.23035h-2.74331v-0.58346h3.38377v0.58346h-0.0015v2.23035h0.42747v1.4549l1.55239,0.00435v-2.2092h1.31391v-0.89694h17.29682v-0.41997h-17.94628v-2.04736h18.03177v-2.9023h4.08122v2.9023h12.87677c0.0004,-0.05479 0.00075,-0.11354 0.00105,-0.17624c0.0018,-0.37738 0.00115,-0.89084 -0.00195,-1.5404l-0.00015,-0.04635c-2.28765,-0.45162 -4.03682,-2.8957 -4.03682,-5.25654zM318.26753,144.91996v0.89544h-5.67262v-0.89544zM312.8274,146.00739h5.20765v1.4594h-5.20765zM310.44091,153.83385h2.86346v6.98427c-0.52137,0.0264 -1.03233,0.0623 -1.53289,0.10769zM320.74056,208.72967l0.24943,1.32936h11.52207v-56.22517h-14.95548v6.98443c0.30498,0.0154 0.60681,0.0341 0.90549,0.05609c0.29858,0.0221 0.59296,0.04735 0.88314,0.07574c0.29008,0.0285 0.57481,0.06004 0.8542,0.09464c0.27938,0.0347 0.55241,0.07235 0.8191,0.11294c0.26668,0.0406 0.52601,0.08399 0.778,0.13019c0.25198,0.04629 0.49567,0.09524 0.73105,0.14684c0.23539,0.0515 0.46167,0.10549 0.67885,0.16199c0.21709,0.0565 0.42422,0.11529 0.62141,0.17639c0.19719,0.061 0.38373,0.12399 0.55961,0.18898c0.17589,0.06509 0.34042,0.13199 0.49362,0.20069c0.15319,0.06869 0.29453,0.13889 0.42402,0.21059c0.12939,0.07179 0.24648,0.14484 0.35128,0.21913c0.10469,0.07429 0.19664,0.14959 0.27583,0.22588c0.0793,0.0763 0.14549,0.15329 0.19859,0.23098c0.0531,0.07779 0.09299,0.15599 0.11969,0.23458c0.0267,0.07859 0.04005,0.15734 0.04005,0.23624c0,0.0787 -0.01325,0.15724 -0.03975,0.23564c-0.0265,0.07829 -0.0662,0.15624 -0.11909,0.23384c-0.0528,0.0775 -0.11859,0.15429 -0.19738,0.23038c-0.0787,0.07609 -0.17009,0.15119 -0.27418,0.22528c-0.1042,0.07409 -0.22064,0.14694 -0.34933,0.21854c-0.12869,0.0715 -0.26923,0.14154 -0.42162,0.21014c-0.15229,0.0685 -0.31588,0.13524 -0.49077,0.20023c-0.17489,0.0649 -0.36042,0.12784 -0.55661,0.18884c-0.19609,0.06089 -0.40212,0.11954 -0.61811,0.17593c-0.21599,0.0565 -0.44107,0.11054 -0.67525,0.16214c-0.23419,0.0515 -0.47662,0.10039 -0.7273,0.14669c-0.25068,0.04629 -0.50872,0.08979 -0.7741,0.13049c-0.26548,0.0407 -0.53726,0.07845 -0.81534,0.11324c-0.27818,0.03479 -0.56166,0.0665 -0.85044,0.0951c-0.28888,0.0286 -0.58201,0.05405 -0.87939,0.07634c-0.29748,0.0222 -0.59811,0.0412 -0.90189,0.057l-3.62841,5.70996l10.94985,1.59784c0.04869,0.0072 0.09624,0.019 0.14264,0.03539c0.0464,0.0165 0.09074,0.03735 0.13304,0.06255c0.0423,0.0253 0.08174,0.0544 0.11834,0.0873c0.03659,0.03299 0.0696,0.06925 0.09899,0.10875c0.0294,0.0395 0.0547,0.08149 0.07589,0.12599c0.0212,0.0444 0.03779,0.09049 0.0498,0.13829c0.0121,0.0477 0.0194,0.09614 0.0219,0.14534c0.0026,0.0492 0.00035,0.09814 -0.00675,0.14684c-0.0104,0.0709 -0.03055,0.13894 -0.06045,0.20414c-0.0298,0.06519 -0.06819,0.12484 -0.11519,0.17894c-0.047,0.05419 -0.10064,0.10064 -0.16094,0.13934c-0.06019,0.0388 -0.12469,0.06834 -0.19349,0.08864c-0.0136,0.0293 -0.03345,0.05345 -0.05955,0.07245c-0.026,0.0191 -0.05504,0.03065 -0.08714,0.03465l-10.2068,1.28646l0.25093,1.33746l9.99877,1.4591c0.04869,0.0072 0.09624,0.019 0.14264,0.03539c0.0464,0.0165 0.09074,0.03735 0.13304,0.06255c0.0423,0.0253 0.08174,0.0544 0.11834,0.0873c0.03659,0.03299 0.0696,0.06925 0.09899,0.10875c0.0294,0.0395 0.0547,0.08149 0.07589,0.12599c0.0212,0.0444 0.03779,0.09049 0.0498,0.13829c0.0121,0.0477 0.0194,0.09614 0.0219,0.14534c0.0026,0.0492 0.00035,0.09814 -0.00675,0.14684c-0.0105,0.07179 -0.03095,0.14059 -0.06135,0.20639c-0.0305,0.06579 -0.06964,0.12594 -0.11744,0.18044c-0.0479,0.0544 -0.10254,0.10095 -0.16394,0.13964c-0.0613,0.0386 -0.12689,0.0677 -0.19678,0.0873c-0.0312,0.052 -0.07694,0.0818 -0.13724,0.08939l-9.17367,1.15627l0.28168,1.50139l8.93489,1.30386c0.04869,0.0072 0.09624,0.019 0.14264,0.03539c0.0464,0.0165 0.09074,0.03735 0.13304,0.06255c0.0423,0.0253 0.08174,0.0544 0.11834,0.0873c0.03659,0.03299 0.0696,0.06925 0.09899,0.10875c0.0294,0.0395 0.0547,0.08149 0.07589,0.12599c0.0212,0.0444 0.03779,0.09049 0.0498,0.13829c0.0121,0.0477 0.0194,0.09614 0.0219,0.14534c0.0026,0.0492 0.00035,0.09814 -0.00675,0.14684c-0.0104,0.07109 -0.0306,0.13929 -0.0606,0.20459c-0.0299,0.06519 -0.06844,0.12494 -0.11564,0.17924c-0.0471,0.05419 -0.10089,0.10064 -0.16139,0.13934c-0.0605,0.0388 -0.12519,0.06825 -0.19409,0.08834c-0.0139,0.0284 -0.0337,0.05179 -0.0594,0.0702c-0.02569,0.0184 -0.05425,0.02955 -0.08565,0.03345l-8.16065,1.02863l0.35878,1.91267l7.84476,1.14472c0.04869,0.0072 0.09624,0.019 0.14264,0.03539c0.0464,0.0165 0.09074,0.03735 0.13304,0.06255c0.0423,0.0253 0.08174,0.0544 0.11834,0.0873c0.03659,0.03299 0.0696,0.06925 0.09899,0.10875c0.0294,0.0395 0.0547,0.08149 0.07589,0.12599c0.0212,0.0444 0.03779,0.09049 0.0498,0.13829c0.0121,0.0477 0.0194,0.09614 0.0219,0.14534c0.0026,0.0492 0.00035,0.09814 -0.00675,0.14684c-0.0104,0.07109 -0.0306,0.13929 -0.0606,0.20459c-0.0299,0.0653 -0.06844,0.12504 -0.11564,0.17924c-0.0471,0.05419 -0.10089,0.10064 -0.16139,0.13934c-0.0605,0.0388 -0.12519,0.06825 -0.19409,0.08834c-0.0301,0.0589 -0.07795,0.09245 -0.14354,0.10064l-7.12677,0.89829l0.33492,1.78563l6.83324,0.99714c0.04869,0.0072 0.09624,0.019 0.14264,0.03539c0.0464,0.0165 0.09074,0.03735 0.13304,0.06255c0.0423,0.0253 0.08174,0.0544 0.11834,0.0873c0.03659,0.03299 0.0696,0.06925 0.09899,0.10875c0.0294,0.0395 0.0547,0.08149 0.07589,0.12599c0.0212,0.0444 0.03779,0.09049 0.0498,0.13829c0.0121,0.0477 0.0194,0.09614 0.0219,0.14534c0.0026,0.0492 0.00035,0.09814 -0.00675,0.14684c-0.0104,0.0709 -0.03055,0.13894 -0.06045,0.20414c-0.0298,0.06519 -0.06819,0.12484 -0.11519,0.17894c-0.047,0.05419 -0.10064,0.10064 -0.16094,0.13934c-0.06019,0.0388 -0.12469,0.06834 -0.19349,0.08864c-0.0136,0.0293 -0.03345,0.05345 -0.05955,0.07245c-0.026,0.0191 -0.05504,0.03065 -0.08714,0.03465l-6.16323,0.7768l0.46317,2.46823l5.74296,0.83799c0.04869,0.0072 0.09624,0.019 0.14264,0.03539c0.0464,0.0165 0.09074,0.03735 0.13304,0.06255c0.0423,0.0253 0.08174,0.0544 0.11834,0.0873c0.03659,0.03299 0.0696,0.06925 0.09899,0.10875c0.0294,0.0395 0.0547,0.08149 0.07589,0.12599c0.0212,0.0444 0.03779,0.09049 0.0498,0.13829c0.0121,0.0477 0.0194,0.09614 0.0219,0.14534c0.0026,0.0492 0.00035,0.09814 -0.00675,0.14684c-0.0105,0.0716 -0.0309,0.14019 -0.0612,0.20579c-0.0303,0.06569 -0.06925,0.12574 -0.11684,0.18014c-0.0477,0.0544 -0.10209,0.10095 -0.16319,0.13964c-0.0612,0.0386 -0.12659,0.0678 -0.19618,0.08759c-0.0309,0.05419 -0.07735,0.08519 -0.13934,0.09299l-5.1295,0.64661l0.46782,2.49343l4.70458,0.6865c0.04869,0.0072 0.09624,0.019 0.14264,0.03539c0.0464,0.0165 0.09074,0.03735 0.13304,0.06255c0.0423,0.0253 0.08174,0.0544 0.11834,0.0873c0.03659,0.03299 0.0696,0.06925 0.09899,0.10875c0.0294,0.0395 0.0547,0.08149 0.07589,0.12599c0.0212,0.0444 0.03779,0.09049 0.0498,0.13829c0.0121,0.0477 0.0194,0.09614 0.0219,0.14534c0.0026,0.0492 0.00035,0.09814 -0.00675,0.14684c-0.0103,0.0703 -0.0302,0.13779 -0.05969,0.20249c-0.0294,0.0647 -0.06724,0.12399 -0.11354,0.17789c-0.04629,0.0539 -0.09919,0.10029 -0.15869,0.13919c-0.0595,0.0389 -0.12324,0.06869 -0.19124,0.08939c-0.0117,0.03359 -0.0314,0.0616 -0.05909,0.08399c-0.0277,0.0224 -0.0592,0.0358 -0.0945,0.0402zM235.46416,155.15226h5.20765v1.4594h-5.20765zM235.23168,156.80365h5.67262v0.89544h-5.67262zM235.46416,157.89257h5.20765v1.4594h-5.20765zM215.55002,169.94875h45.03443v6.90253h-45.03443zM314.32729,174.54804l-0.20263,-1.07993l4.21442,0.61496c-0.87944,0.10939 -2.2167,0.26438 -4.01177,0.46497zM218.28283,191.08832v-13.44059h39.56731v13.44059zM315.37407,180.12721l-0.15914,-0.84849l3.29273,0.48057c-0.70495,0.08879 -1.74948,0.21144 -3.13359,0.36793zM316.38905,185.53689l-0.11024,-0.58766l2.265,0.33043c-0.52416,0.06639 -1.24242,0.15214 -2.15476,0.25723zM317.41993,191.03072l-0.05084,-0.27088l1.03688,0.15134c-0.28008,0.035 -0.60876,0.07485 -0.98603,0.11954zM260.58445,191.88476h-45.03443v2.75381h6.37007c0,1.14607 0.37138,2.24295 1.04978,3.25418c-0.55416,0.62526 -1.4224,1.08753 -2.60472,1.38681c-0.83414,0.21109 -1.66774,0.33008 -2.50078,0.35698v-2.00716h-2.43884v2.20875l-1.5539,-0.00435v-1.45445h-0.42747v-2.23035h0.0015v-0.58346h-3.38377v0.58346h2.74331v2.23035h-0.68245v1.44965l-3.41061,-0.0096l-0.00311,1.10842h0.00144v1.16227h1.19542v-1.15897l2.21685,0.0063v2.55958h1.74888v-2.55477l1.5539,0.00435v2.19195h2.43884v-2.00131c0.95683,-0.0272 1.91312,-0.16174 2.86886,-0.40362c0.93683,-0.23709 1.72643,-0.56031 2.36879,-0.96968v10.01317h3.66725v-8.59757c2.2035,1.22377 5.02286,2.09236 8.16995,2.44273v0.89769h6.25458v-0.89739c1.87922,-0.20894 3.6416,-0.60281 5.22594,-1.14667c0.71965,1.5733 2.06006,2.62682 4.02122,3.16059c1.30341,0.35488 2.60772,0.45127 3.91293,0.28918v3.85144h3.66725v-2.66082h0.93894v-1.88717l0.0012,0.44787l2.30115,-0.00645v2.55417h1.74888v-2.55898l2.21685,-0.0063v1.15837h1.19542v-1.16167h0.0012l-0.003,-1.10842l-3.41047,0.0096v-1.45025h-0.68245v-2.23185h2.74482v-0.58346h-3.38377v2.81531h-0.42747v1.45505l-2.30235,0.00645v-1.4615h-0.93894v-8.46843h2.56333zM254.35388,194.63857h-0.13799c0,2.97055 -2.49538,5.61082 -6.36257,7.28351c0.56526,1.12422 1.55909,1.87997 2.9815,2.26725c1.17402,0.31948 2.34704,0.39372 3.51906,0.22273zM236.55009,204.78088h3.0283v1.00043h-3.0283zM236.10462,207.22121v-1.29741h3.92373v1.29741zM236.55308,207.3937h3.0283v2.02636h-3.0283zM241.96622,209.15458h1.10842v5.82861h-1.10842zM234.53272,209.57606h7.06902v1.29741h-7.06902zM222.12107,209.86254h5.62911v0.66146h-5.62911zM253.37294,209.86254h5.62911v0.66146h-5.62911zM223.102,210.60499h3.66725v24.52483h-3.66725zM254.35388,210.60499h3.66725v24.52483h-3.66725zM295.35809,211.00396h39.06334v2.04736h-39.06334zM236.89656,214.8122v-3.75725h2.33984v3.75725zM297.69043,213.84626v19.44767h15.63644v-19.44767h2.61582v19.44767h15.63644v-19.44767h2.61582v35.13961h-2.61582v-14.55501h-15.63644v14.55501h-2.61582v-14.55501h-15.63644v14.55501h-2.61582v-35.13961zM221.87959,235.33981h6.14208v1.05143h-6.14208zM253.13146,235.33981h6.14208v1.05143h-6.14208zM220.81316,236.50523h8.27343v13.30559h-8.27343zM252.06503,236.50523h8.27343v13.30559h-8.27343z" data-paper-data="{&quot;isPathIcon&quot;:true}" style="fill: #2f261c;"/></g></g></g></svg>