<svg xmlns:svg="http://www.w3.org/2000/svg" xmlns="http://www.w3.org/2000/svg" id="svg2938" version="1.1" viewBox="-1.318236 -1.318236 134.919672 46.577672"><defs id="defs2935"></defs><path id="path1452" d="m 91.01563,36.3555 c -0.364,0 -0.66211,0.2816 -0.66211,0.6269 0,0.3427 0.29811,0.625 0.66211,0.625 0.36133,0 0.66211,-0.2823 0.66211,-0.625 0,-0.3453 -0.30078,-0.6269 -0.66211,-0.6269 z m -31.05469,0.2851 1.99219,7.1856 h 1.0957 l 1.51172,-5.3828 h 0.0547 l 1.51172,5.3828 h 1.09179 l 1.99414,-7.1856 h -1.14258 l -1.39648,5.5664 h -0.0644 L 65.15241,36.6406 H 64.0235 l -1.45508,5.5645 h -0.0664 l -1.4004,-5.5645 z m 19.4082,0 v 7.1856 h 1.04688 v -7.1856 z m 8.6543,0 v 7.1856 h 1.04687 v -7.1856 z m 17.37305,0 v 7.1836 h 1.02539 v -0.8379 h 0.0859 c 0.18934,0.344 0.57531,0.9434 1.55665,0.9434 1.30533,0 2.25195,-1.0445 2.25195,-2.7871 0,-1.7467 -0.95843,-2.7754 -2.25977,-2.7754 -1.00133,0 -1.36216,0.61 -1.54883,0.9433 h -0.0625 v -2.6699 z m -19.92774,0 v 2.6679 h -0.0625 c -0.19066,-0.332 -0.54678,-0.9433 -1.55078,-0.9433 -1.30133,0 -2.25781,1.0287 -2.25781,2.7754 0,1.7426 0.94262,2.7871 2.25195,2.7871 0.98133,0 1.36598,-0.5994 1.55664,-0.9434 h 0.0879 v 0.8399 h 1.02539 v -7.1836 z m 44.96485,0 v 2.6679 h -0.0625 c -0.19067,-0.332 -0.54679,-0.9433 -1.55079,-0.9433 -1.30133,0 -2.25781,1.0287 -2.25781,2.7754 0,1.7426 0.94262,2.7871 2.25196,2.7871 0.98133,0 1.36597,-0.5994 1.55664,-0.9434 h 0.0879 v 0.8399 h 1.02539 v -7.1836 z m -52.42969,1.7148 c -0.63067,0 -1.17119,0.3556 -1.36719,0.9356 h -0.0547 V 38.4355 H 75.5664 v 5.3887 h 1.04883 v -3.2911 c 0,-0.7053 0.54311,-1.2148 1.28711,-1.2148 0.21733,0 0.46287,0.041 0.54687,0.065 v -1.0039 c -0.104,-0.013 -0.31198,-0.024 -0.44531,-0.024 z m 35.93555,0 c -0.63067,0 -1.16924,0.3556 -1.36524,0.9356 h -0.0566 v -0.8555 h -1.01367 v 5.3887 h 1.04687 v -3.2911 c 0,-0.7053 0.54507,-1.2148 1.28907,-1.2148 0.21733,0 0.46287,0.041 0.54687,0.065 v -1.0039 c -0.104,-0.013 -0.31393,-0.024 -0.44726,-0.024 z m -57.61524,0.01 c -0.97467,0 -1.87199,0.3936 -2.22266,1.375 l 0.98438,0.2246 c 0.15467,-0.3827 0.54795,-0.75 1.25195,-0.75 0.67734,0 1.02539,0.3535 1.02539,0.9629 v 0.023 c 0,0.384 -0.39333,0.3776 -1.36132,0.4883 -1.02134,0.12 -2.06641,0.3873 -2.06641,1.6113 0,1.06 0.79631,1.6407 1.82031,1.6407 0.892,0 1.39375,-0.4515 1.59375,-0.8555 h 0.041 V 43.824 H 58.416 v -3.5801 c 0,-1.568 -1.2358,-1.8789 -2.0918,-1.8789 z m 15.55274,0 c -1.51867,0 -2.51172,1.1117 -2.51172,2.789 0,1.6654 0.99305,2.7774 2.51172,2.7774 1.51866,0 2.51367,-1.112 2.51367,-2.7774 0,-1.6773 -0.99501,-2.789 -2.51367,-2.789 z m 23.73437,0 c -0.81067,0 -1.34051,0.3752 -1.58984,0.9472 h -0.0664 v -0.8769 h -1.00586 v 5.3867 h 1.04688 v -3.1973 c 0,-0.86 0.52652,-1.3535 1.25586,-1.3535 0.71199,0 1.14453,0.468 1.14453,1.252 v 3.2988 h 1.04882 v -3.4258 c 0,-1.3333 -0.73398,-2.0312 -1.83398,-2.0312 z m 5.49609,0 c -1.50133,0 -2.49023,1.1415 -2.49023,2.7988 0,1.672 0.9745,2.7676 2.5625,2.7676 1.176,0 2.00743,-0.5778 2.24609,-1.4551 L 102.4336,42.297 c -0.19067,0.5094 -0.64486,0.7696 -1.24219,0.7696 -0.89734,0 -1.50263,-0.5825 -1.5293,-1.6211 h 3.83008 v -0.3731 c 0,-1.9467 -1.16477,-2.707 -2.38477,-2.707 z m 16.28516,0 c -0.976,0 -1.87528,0.3936 -2.22461,1.375 l 0.98633,0.2246 c 0.15467,-0.3827 0.54662,-0.75 1.25195,-0.75 0.676,0 1.02344,0.3535 1.02344,0.9629 v 0.023 c 0,0.384 -0.39333,0.3776 -1.36133,0.4883 -1.02,0.12 -2.06445,0.3873 -2.06445,1.6113 0,1.06 0.79436,1.6407 1.81836,1.6407 0.89066,0 1.39508,-0.4515 1.59375,-0.8555 h 0.041 v 0.7383 h 1.02539 v -3.5801 c 0,-1.568 -1.23517,-1.8789 -2.08984,-1.8789 z m 6.1582,0 c -0.81066,0 -1.34051,0.3752 -1.58984,0.9472 h -0.0664 v -0.8769 h -1.00586 v 5.3867 h 1.04688 v -3.1973 c 0,-0.86 0.52652,-1.3535 1.25586,-1.3535 0.712,0 1.14453,0.468 1.14453,1.252 v 3.2988 h 1.04883 v -3.4258 c 0,-1.3333 -0.73399,-2.0312 -1.83399,-2.0312 z m -33.06445,0.07 v 5.3887 h 1.04687 v -5.3887 z m 10.62695,0.7949 c 0.81467,0 1.3489,0.6044 1.35157,1.4297 h -2.79883 c 0.0427,-0.7653 0.59526,-1.4297 1.44726,-1.4297 z m -29.23242,0.012 c 0.98667,0 1.44922,0.8776 1.44922,1.9082 0,1.0347 -0.46255,1.9004 -1.44922,1.9004 -0.992,0 -1.45703,-0.8657 -1.45703,-1.9004 0,-1.0306 0.46503,-1.9082 1.45703,-1.9082 z m 35.94922,0.014 c 0.94933,0 1.42773,0.8024 1.42773,1.8731 0,1.08 -0.49173,1.9042 -1.42773,1.9042 -0.90267,0 -1.4082,-0.7709 -1.4082,-1.9042 0,-1.1267 0.4922,-1.8731 1.4082,-1.8731 z m -23.75,0 c 0.916,0 1.40625,0.7444 1.40625,1.8711 0,1.1333 -0.50092,1.9042 -1.40625,1.9042 -0.936,1e-4 -1.42383,-0.8242 -1.42383,-1.9042 0,-1.0707 0.47716,-1.8711 1.42383,-1.8711 z m 44.96484,0 c 0.916,0 1.40625,0.7444 1.40625,1.8711 0,1.1333 -0.50091,1.9042 -1.40625,1.9042 -0.936,1e-4 -1.42382,-0.8242 -1.42382,-1.9042 0,-1.0707 0.47716,-1.8711 1.42382,-1.8711 z M 57.36719,41.184 v 0.6934 c 0,0.6386 -0.50815,1.2226 -1.38281,1.2226 -0.592,0 -1.02149,-0.2698 -1.02149,-0.7871 0,-0.5627 0.4988,-0.7605 1.10547,-0.8418 0.34,-0.045 1.14816,-0.1378 1.29883,-0.2871 z m 61.06641,0 v 0.6934 c 0,0.6386 -0.50948,1.2226 -1.38282,1.2226 -0.592,0 -1.02148,-0.2698 -1.02148,-0.7871 0,-0.5627 0.49942,-0.7605 1.10742,-0.8418 0.34,-0.045 1.14621,-0.1378 1.29688,-0.2871 z" style="fill:#2f261c;fill-opacity:1;fill-rule:nonzero;stroke:none;stroke-width:1.33333325"></path><path id="path1504" d="M 2.42578,0 C 1.08578,0 0,1.0858 0,2.4258 c 0,1.34 1.08578,2.4258 2.42578,2.4258 1.34,0 2.42383,-1.0858 2.42383,-2.4258 C 4.84961,1.0858 3.76578,0 2.42578,0 Z m 89.81836,0 c -1.34,0 -2.42578,1.0858 -2.42578,2.4258 0,1.34 1.08578,2.4258 2.42578,2.4258 1.34,0 2.42578,-1.0858 2.42578,-2.4258 C 94.66992,1.0858 93.58414,0 92.24414,0 Z M 9.83594,0.7109 V 4.1387 H 84.83399 V 0.7109 Z m 10.14258,9.3555 c -2.66934,0 -4.69605,1.5896 -5.88672,2.4883 v -0.037 c -0.0413,0.045 -0.0843,0.091 -0.12695,0.1367 -0.41334,-1.5213 -1.50481,-1.961 -2.49415,-2.0703 h -1.625 v 18.875 h 4.2461 V 15.631 c 0.83733,-0.484 2.76777,-1.625 4.53711,-1.625 2.38,0 2.86328,1.2458 2.86328,3.9765 v 11.4766 h 4.21289 V 17.463 c 0,-3.8707 -0.35323,-7.3965 -5.72656,-7.3965 z m 59.14062,0 c -2.66933,0 -4.69605,1.5896 -5.88672,2.4883 v -0.037 c -0.0427,0.045 -0.0856,0.091 -0.12695,0.1367 -0.41333,-1.5213 -1.50481,-1.961 -2.49414,-2.0703 h -1.625 v 18.875 h 4.24609 V 15.631 c 0.836,-0.484 2.76778,-1.625 4.53711,-1.625 2.38,0 2.86133,1.2458 2.86133,3.9765 V 29.4591 H 84.8457 V 17.463 c 0,-3.8707 -0.35456,-7.3965 -5.72656,-7.3965 z m 28.39453,0.035 c -5.56666,0 -9.10547,3.7667 -9.10547,9.748 1e-5,7.0533 2.67072,9.9199 9.74805,9.9199 1.89867,0 3.05679,-0.3104 4.43945,-0.6211 l -0.57812,-3.5254 c -1.15867,0.172 -2.12231,0.4473 -3.57031,0.4473 -4.632,0 -5.69336,-1.9003 -5.69336,-6.1523 0,-4.4254 2.0571,-6.084 4.75976,-6.084 1.76934,0 2.86415,0.3461 4.02149,0.8301 l 1.22265,-3.3536 c -1.15866,-0.6906 -2.73614,-1.2089 -5.24414,-1.2089 z m 16.1836,0 c -5.21067,0 -8.72071,3.7324 -8.72071,10.0937 0,6.0493 3.02303,9.6777 8.42969,9.6777 5.08134,0 8.87695,-3.3515 8.87695,-9.8515 1e-5,-6.292 -2.7326,-9.9199 -8.58593,-9.9199 z m -65.62696,0.033 c -4.95466,0 -8.55859,2.5226 -8.55859,10.1972 0,7.396 3.50648,9.4375 9.00781,9.4375 2.124,0 4.79178,-0.2425 6.17578,-0.7265 l -0.64257,-3.5254 c -1.384,0.3093 -3.53906,0.4824 -4.76172,0.4824 -3.152,0 -5.53441,-0.5872 -5.56641,-4.6992 h 11.48438 v -1.6602 c 0,-5.9106 -2.05601,-9.5058 -7.13868,-9.5058 z M 38.66992,10.273 c -5.01733,0 -9.16796,3.4236 -9.16796,9.8516 -10e-6,8.5387 4.50405,9.6465 8.52539,9.6465 1.28666,0 2.50762,-0.5548 3.37695,-1.2442 0,0.1027 0.064,0.9659 0,1.0352 0,3.3187 -1.89798,3.8008 -4.69531,3.8008 -1.32,0 -3.66935,-0.344 -5.27735,-0.7227 l -0.64258,3.5938 c 1.51334,0.448 3.95629,1.0019 6.62696,1.0019 3.73066,0 8.16992,-1.9014 8.16992,-7.1894 V 11.0015 C 42.84994,10.5509 40.66592,10.273 38.66992,10.273 Z M 0.31836,10.5836 v 18.875 H 4.5332 v -18.875 z m 89.82031,0 v 18.875 h 4.21485 V 10.5836 Z M 57.6836,13.5933 c 1.80133,0 3.18372,1.5896 3.15039,4.4922 h -7.01172 c 0.192,-3.18 2.05999,-4.4922 3.86133,-4.4922 z m 65.91601,0.1368 c 3.50667,0 4.34375,3.075 4.34375,6.291 0,3.4213 -0.83858,6.1875 -4.28125,6.1875 -3.37867,0 -4.4375,-2.6277 -4.4375,-6.1543 0,-3.2827 0.93233,-6.3242 4.375,-6.3242 z m -84.96289,0.3105 c 1.22267,0 2.02966,0.1397 2.73633,0.209 V 25.275 c -0.804,0.4147 -1.86776,0.9336 -3.12109,0.9336 -2.76667,0 -4.56836,-1.5542 -4.56836,-6.0489 0,-3.5266 1.41579,-6.1191 4.95312,-6.1191 z" style="fill:#2f261c;fill-opacity:1;fill-rule:nonzero;stroke:none;stroke-width:1.33333325"></path></svg>